<svg aria-hidden="true" style="position: absolute; width: 0; height: 0; overflow: hidden;" version="1.1" xmlns="http://www.w3.org/2000/svg" xmlns:xlink="http://www.w3.org/1999/xlink">
<defs>
<symbol id="icon-arrow-left" viewBox="0 0 32 32">
<path d="M10.437 17.333l7.152 7.152-1.885 1.885-10.371-10.371 10.371-10.371 1.885 1.885-7.152 7.152h16.229v2.667h-16.229z"></path>
</symbol>
<symbol id="icon-arrow-podcast" viewBox="0 0 32 32">
<path fill="#fff" style="fill: var(--color1, #fff)" d="M0.455 29.684h31.22v2.081h-31.22v-2.081z"></path>
<path fill="#fff" style="fill: var(--color1, #fff)" d="M29.571 0.568h2.081v31.22h-2.081v-31.22z"></path>
<path fill="#fff" style="fill: var(--color1, #fff)" d="M2.96 4.638l1.472-1.472 27.221 27.221-1.472 1.472-27.221-27.221z"></path>
</symbol>
<symbol id="icon-arrow-right" viewBox="0 0 32 32">
<path d="M21.563 14.667l-7.152-7.152 1.885-1.885 10.371 10.371-10.371 10.371-1.885-1.885 7.152-7.152h-16.229v-2.667h16.229z"></path>
</symbol>
<symbol id="icon-chevron-left" viewBox="0 0 32 32">
<path d="M25.193 25.753l-3.771 3.771-14.755-14.755 3.771-3.771 14.755 14.755z"></path>
<path d="M10.438 18.527l-3.771-3.771 14.755-14.755 3.771 3.771-14.755 14.755z"></path>
</symbol>
<symbol id="icon-chevron-right" viewBox="0 0 32 32">
<path d="M6.667 3.771l3.771-3.771 14.755 14.755-3.771 3.771-14.755-14.755z"></path>
<path d="M21.422 10.996l3.771 3.771-14.755 14.755-3.771-3.771 14.755-14.755z"></path>
</symbol>
<symbol id="icon-instagram" viewBox="0 0 32 32">
<path d="M16 12c-1.061 0-2.078 0.421-2.828 1.172s-1.172 1.768-1.172 2.828c0 1.061 0.421 2.078 1.172 2.828s1.768 1.172 2.828 1.172c1.061 0 2.078-0.421 2.828-1.172s1.172-1.767 1.172-2.828c0-1.061-0.421-2.078-1.172-2.828s-1.767-1.172-2.828-1.172zM16 9.333c1.768 0 3.464 0.702 4.714 1.953s1.953 2.946 1.953 4.714-0.702 3.464-1.953 4.714c-1.25 1.25-2.946 1.953-4.714 1.953s-3.464-0.702-4.714-1.953c-1.25-1.25-1.953-2.946-1.953-4.714s0.702-3.464 1.953-4.714c1.25-1.25 2.946-1.953 4.714-1.953zM24.667 9c0 0.442-0.176 0.866-0.488 1.178s-0.737 0.488-1.179 0.488c-0.442 0-0.866-0.176-1.179-0.488s-0.488-0.736-0.488-1.178c0-0.442 0.176-0.866 0.488-1.178s0.737-0.488 1.179-0.488c0.442 0 0.866 0.176 1.179 0.488s0.488 0.736 0.488 1.178zM16 5.333c-3.299 0-3.837 0.009-5.372 0.077-1.045 0.049-1.747 0.189-2.397 0.443-0.545 0.2-1.037 0.52-1.44 0.937-0.417 0.403-0.738 0.895-0.939 1.44-0.253 0.653-0.393 1.353-0.441 2.397-0.069 1.472-0.077 1.987-0.077 5.372 0 3.299 0.009 3.837 0.077 5.372 0.049 1.044 0.189 1.747 0.441 2.396 0.227 0.58 0.493 0.997 0.936 1.44 0.449 0.448 0.867 0.716 1.44 0.937 0.659 0.255 1.36 0.396 2.4 0.444 1.472 0.069 1.987 0.077 5.372 0.077 3.299 0 3.837-0.009 5.372-0.077 1.043-0.049 1.745-0.189 2.396-0.441 0.544-0.201 1.036-0.521 1.44-0.936 0.449-0.449 0.717-0.867 0.939-1.44 0.253-0.657 0.395-1.36 0.443-2.4 0.069-1.472 0.077-1.987 0.077-5.372 0-3.299-0.009-3.837-0.077-5.372-0.049-1.043-0.189-1.747-0.443-2.397-0.201-0.544-0.521-1.036-0.937-1.44-0.403-0.418-0.895-0.738-1.44-0.939-0.653-0.253-1.355-0.393-2.397-0.441-1.472-0.069-1.987-0.077-5.372-0.077zM16 2.667c3.623 0 4.075 0.013 5.496 0.080 1.42 0.067 2.387 0.289 3.237 0.62 0.88 0.339 1.621 0.797 2.363 1.537 0.678 0.667 1.203 1.473 1.537 2.363 0.329 0.849 0.553 1.817 0.62 3.237 0.063 1.421 0.080 1.873 0.080 5.496s-0.013 4.075-0.080 5.496c-0.067 1.42-0.291 2.387-0.62 3.237-0.334 0.89-0.859 1.697-1.537 2.363-0.667 0.678-1.473 1.202-2.363 1.537-0.849 0.329-1.817 0.553-3.237 0.62-1.421 0.063-1.873 0.080-5.496 0.080s-4.075-0.013-5.496-0.080c-1.42-0.067-2.387-0.291-3.237-0.62-0.89-0.334-1.697-0.859-2.363-1.537-0.678-0.666-1.203-1.473-1.537-2.363-0.331-0.849-0.553-1.817-0.62-3.237-0.063-1.421-0.080-1.873-0.080-5.496s0.013-4.075 0.080-5.496c0.067-1.421 0.289-2.387 0.62-3.237 0.334-0.89 0.858-1.697 1.537-2.363 0.666-0.678 1.473-1.203 2.363-1.537 0.851-0.331 1.816-0.553 3.237-0.62 1.421-0.063 1.873-0.080 5.496-0.080z"></path>
</symbol>
<symbol id="icon-menu" viewBox="0 0 32 32">
<path stroke="var(--dark)" fill="var(--dark)" stroke-width="2.6667" d="M5.333 16h21.333"></path>
<path stroke="var(--dark)" fill="var(--dark)" stroke-width="2.6667" d="M5.333 8h21.333"></path>
<path stroke="var(--dark)" fill="var(--dark)" stroke-width="2.6667" d="M5.333 24h21.333"></path>
</symbol>
<symbol id="icon-podcast-arrow" viewBox="0 0 32 32">
<path fill="#fff" style="fill: var(--color1, #fff)" d="M0.455 29.684h31.22v2.081h-31.22v-2.081z"></path>
<path fill="#fff" style="fill: var(--color1, #fff)" d="M29.571 0.568h2.081v31.22h-2.081v-31.22z"></path>
<path fill="#fff" style="fill: var(--color1, #fff)" d="M2.96 4.638l1.472-1.472 27.221 27.221-1.472 1.472-27.221-27.221z"></path>
</symbol>
<symbol id="icon-rss" viewBox="0 0 32 32">
<path d="M4 4c13.255 0 24 10.745 24 24h-4c0-11.045-8.955-20-20-20v-4zM4 13.333c8.1 0 14.667 6.567 14.667 14.667h-4c0-2.829-1.124-5.542-3.124-7.543s-4.713-3.124-7.542-3.124v-4zM4 22.667c1.415 0 2.771 0.562 3.771 1.562s1.562 2.357 1.562 3.771h-5.333v-5.333z"></path>
</symbol>
<symbol id="icon-soundcloud" viewBox="0 0 32 32">
<path d="M5.333 13.333c0.354 0 0.693 0.141 0.943 0.391s0.391 0.589 0.391 0.943v9.333c0 0.354-0.14 0.693-0.391 0.943s-0.589 0.391-0.943 0.391c-0.354 0-0.693-0.141-0.943-0.391s-0.391-0.589-0.391-0.943v-9.333c0-0.354 0.14-0.693 0.391-0.943s0.589-0.391 0.943-0.391zM9.333 14.667c0.354 0 0.693 0.141 0.943 0.391s0.391 0.589 0.391 0.943v8c0 0.354-0.14 0.693-0.391 0.943s-0.589 0.391-0.943 0.391c-0.354 0-0.693-0.141-0.943-0.391s-0.391-0.589-0.391-0.943v-8c0-0.354 0.14-0.693 0.391-0.943s0.589-0.391 0.943-0.391zM13.333 9.333c0.354 0 0.693 0.14 0.943 0.391s0.391 0.589 0.391 0.943v13.333c0 0.354-0.141 0.693-0.391 0.943s-0.589 0.391-0.943 0.391c-0.354 0-0.693-0.141-0.943-0.391s-0.391-0.589-0.391-0.943v-13.333c0-0.354 0.14-0.693 0.391-0.943s0.589-0.391 0.943-0.391zM20 8c2.070-0 4.059 0.802 5.55 2.238s2.367 3.394 2.445 5.462l0.004 0.347c1.147 0.163 2.193 0.748 2.933 1.64s1.122 2.027 1.071 3.185c-0.051 1.158-0.531 2.255-1.347 3.079s-1.909 1.314-3.066 1.376l-0.256 0.007h-4.668c-0.34-0-0.667-0.131-0.914-0.364s-0.396-0.552-0.416-0.891c-0.020-0.339 0.091-0.673 0.309-0.934s0.527-0.428 0.865-0.468l0.157-0.009 4.78-0.003c0.48-0.026 0.935-0.224 1.281-0.557s0.56-0.781 0.604-1.26c0.043-0.479-0.087-0.957-0.368-1.348s-0.693-0.666-1.16-0.778l-0.18-0.035-2.36-0.336 0.071-2.383-0.005-0.235c-0.066-1.321-0.621-2.57-1.556-3.505s-2.185-1.489-3.505-1.555l-0.267-0.007c-0.357 0-0.708 0.035-1.051 0.103l-0.283 0.065v13.165c0 0.327-0.12 0.642-0.337 0.886s-0.516 0.4-0.84 0.438l-0.156 0.009c-0.354 0-0.693-0.141-0.943-0.391s-0.391-0.589-0.391-0.943l-0.001-14.929c1.216-0.704 2.596-1.073 4.001-1.071zM1.333 16c0.354 0 0.693 0.141 0.943 0.391s0.391 0.589 0.391 0.943v5.333c0 0.354-0.14 0.693-0.391 0.943s-0.589 0.391-0.943 0.391c-0.354 0-0.693-0.141-0.943-0.391s-0.391-0.589-0.391-0.943v-5.333c0-0.354 0.14-0.693 0.391-0.943s0.589-0.391 0.943-0.391z"></path>
</symbol>
<symbol id="icon-spotify" viewBox="0 0 32 32">
<path d="M16 2.667c-7.333 0-13.333 6-13.333 13.333s6 13.333 13.333 13.333c7.333 0 13.333-6 13.333-13.333s-5.933-13.333-13.333-13.333zM21 22.2c-3.133-1.933-7.067-2.333-11.733-1.267-0.467 0.133-0.867-0.2-1-0.6-0.133-0.467 0.2-0.867 0.6-1 5.067-1.133 9.467-0.667 12.933 1.467 0.467 0.2 0.533 0.733 0.333 1.133-0.267 0.4-0.733 0.533-1.133 0.267zM22.333 18.6c-3.6-2.2-9.067-2.867-13.267-1.533-0.533 0.133-1.133-0.133-1.267-0.667s0.133-1.133 0.667-1.267c4.867-1.467 10.867-0.733 15 1.8 0.4 0.2 0.6 0.867 0.267 1.333s-0.933 0.667-1.4 0.333zM8.4 13c-0.667 0.2-1.333-0.2-1.533-0.8-0.2-0.667 0.2-1.333 0.8-1.533 4.733-1.4 12.533-1.133 17.467 1.8 0.6 0.333 0.8 1.133 0.467 1.733-0.333 0.467-1.133 0.667-1.733 0.333-4.267-2.533-11.4-2.8-15.467-1.533z"></path>
</symbol>
<symbol id="icon-twitter" viewBox="0 0 32 32">
<path d="M29.549 7.541c-1.018 0.45-2.097 0.746-3.203 0.877 1.165-0.697 2.037-1.793 2.453-3.085-1.093 0.651-2.292 1.107-3.541 1.353-0.839-0.898-1.952-1.493-3.164-1.694s-2.457 0.005-3.541 0.585c-1.084 0.58-1.945 1.502-2.451 2.622s-0.627 2.376-0.345 3.572c-2.217-0.111-4.386-0.687-6.366-1.691s-3.727-2.413-5.127-4.136c-0.496 0.851-0.756 1.819-0.755 2.804 0 1.933 0.984 3.641 2.48 4.641-0.885-0.028-1.751-0.267-2.525-0.697v0.069c0 1.288 0.446 2.535 1.261 3.532s1.95 1.681 3.212 1.936c-0.822 0.223-1.684 0.256-2.52 0.096 0.356 1.108 1.049 2.078 1.983 2.772s2.062 1.080 3.226 1.101c-1.157 0.908-2.481 1.58-3.897 1.976s-2.897 0.509-4.357 0.333c2.549 1.639 5.516 2.509 8.547 2.507 10.257 0 15.867-8.497 15.867-15.867 0-0.24-0.007-0.483-0.017-0.72 1.092-0.789 2.034-1.767 2.783-2.887l-0.001-0.001z"></path>
</symbol>
<symbol id="icon-youtube" viewBox="0 0 32 32">
<path d="M28.724 8.664c0.609 2.376 0.609 7.336 0.609 7.336s0 4.96-0.609 7.336c-0.339 1.313-1.329 2.347-2.584 2.696-2.279 0.635-10.14 0.635-10.14 0.635s-7.857 0-10.14-0.635c-1.26-0.355-2.249-1.387-2.584-2.696-0.609-2.376-0.609-7.336-0.609-7.336s0-4.96 0.609-7.336c0.339-1.313 1.329-2.347 2.584-2.696 2.283-0.635 10.14-0.635 10.14-0.635s7.861 0 10.14 0.635c1.26 0.355 2.249 1.387 2.584 2.696zM13.333 20.667l8-4.667-8-4.667v9.333z"></path>
</symbol>
</defs>
</svg>